<?xml version="1.0" encoding="UTF-8"?>
<!DOCTYPE svg PUBLIC "-//W3C//DTD SVG 1.1//EN" "http://www.w3.org/Graphics/SVG/1.1/DTD/svg11.dtd">
<!-- Creator: CorelDRAW -->
<svg xmlns="http://www.w3.org/2000/svg" xml:space="preserve" width="256px" height="256px" version="1.1" style="shape-rendering:geometricPrecision; text-rendering:geometricPrecision; image-rendering:optimizeQuality; fill-rule:evenodd; clip-rule:evenodd"
viewBox="0 0 71.44 71.44"
 xmlns:xlink="http://www.w3.org/1999/xlink"
 xmlns:xodm="http://www.corel.com/coreldraw/odm/2003">
 <defs>
  <style type="text/css">
   <![CDATA[
    .fil0 {fill:#1A1A1A}
   ]]>
  </style>
 </defs>
 <g id="Layer_x0020_1">
  <metadata id="CorelCorpID_0Corel-Layer"/>
  <g id="_2036707251072">
   <path class="fil0" d="M35.47 66.46c-2.46,0 -4.83,-0.58 -6.74,-1.53 -1.51,-0.74 -3.81,-2.29 -3.67,-4.52 0.14,-2.2 2.31,-3.46 3.98,-4.29 1.82,-0.9 4.49,-1.39 6.77,-1.39 8.64,0 15,6.2 6.93,10.22 -2.19,1.09 -4.61,1.51 -7.27,1.51zm-15.41 -5.96c0,2.08 0.69,3.64 1.68,5.03 2.96,4.15 9.02,5.91 14.24,5.91 6.41,0 15.49,-3.48 15.49,-10.94 0,-2.04 -0.76,-3.59 -1.65,-4.88 -0.24,-0.35 -0.49,-0.6 -0.73,-0.9 -0.56,-0.73 -1.94,-1.74 -2.77,-2.25 -5.95,-3.68 -15.07,-3.64 -21.05,-0.03 -2.34,1.41 -5.21,4.05 -5.21,8.06z"/>
   <path class="fil0" d="M22.14 11.58c-0.2,2.01 -0.87,2.85 -2.02,4.08 -0.99,1.06 -2.68,1.58 -4.6,1.49 -3.13,-0.15 -5.84,-3.19 -5.51,-6.66 0.3,-3.11 3.11,-5.78 6.62,-5.45 3.09,0.29 5.85,3.07 5.51,6.54zm-4.99 10.5c2.46,-0.22 5.44,-1.66 6.86,-3.31 1.93,-2.24 3.12,-4.58 3.07,-7.87 -0.08,-6.03 -5.05,-10.92 -11.13,-10.9 -9.54,0.03 -14.83,11.6 -7.8,18.86 1.18,1.23 3.55,2.8 6.14,3.18 0.55,0.08 2.54,0.06 2.86,0.04z"/>
   <path class="fil0" d="M54.84 5.01c3.49,-0.38 6.27,2.29 6.64,5.35 0.42,3.5 -2.25,6.41 -5.31,6.74 -3.62,0.4 -6.47,-2.18 -6.82,-5.35 -0.41,-3.64 2.27,-6.39 5.49,-6.74zm-0.41 -4.93c-5.82,0.55 -10.69,5.59 -10.06,12.09 0.14,1.52 0.63,3.04 1.29,4.21 0.53,0.92 1.06,1.65 1.72,2.37 0.26,0.28 0.49,0.42 0.77,0.67 1.78,1.6 5.05,3.02 8.36,2.68 5.72,-0.59 10.53,-5.61 9.92,-12.06 -0.55,-5.68 -5.65,-10.56 -12,-9.96z"/>
   <path class="fil0" d="M34.91 29.81c3.48,-0.31 6.33,2.36 6.62,5.5 0.32,3.44 -2.41,6.47 -5.55,6.62 -2.31,0.11 -4.2,-0.78 -5.35,-2.3 -0.23,-0.31 -0.39,-0.55 -0.6,-0.93 -1.96,-3.68 0.41,-8.48 4.88,-8.89zm-0.76 -4.88c-2.71,0.36 -4.64,1.33 -6.48,3.11 -3.55,3.42 -4.39,9.16 -1.86,13.34 0.87,1.44 1.45,2.03 2.54,2.99 3.13,2.76 8.51,3.46 12.52,1.19 5.31,-3.02 7.27,-9.89 4.18,-15.14 -0.53,-0.9 -1.07,-1.59 -1.77,-2.3 -0.23,-0.24 -0.49,-0.51 -0.75,-0.7 -2.43,-1.82 -5.02,-2.94 -8.38,-2.49z"/>
   <path class="fil0" d="M54.06 24.99c-0.96,0.08 -2.5,0.18 -3.19,0.61 -1.74,1.09 -1.52,3.91 0.61,4.54 1.26,0.37 5.08,-1.13 10.12,0.78 1.79,0.68 3.66,1.83 4.38,3.2 1.24,2.33 -0.4,4.12 -1.67,5.06 -1.34,0.98 -3.41,1.79 -5.43,2.15 -3.79,0.66 -5.93,-0.17 -7.04,0.03 -2.24,0.41 -2.7,3.3 -1,4.47 1.23,0.86 4.88,0.83 6.61,0.7 5.56,-0.4 12.4,-3.18 13.77,-8.96 1.13,-4.79 -2.27,-8.34 -4.86,-9.87 -3.37,-1.98 -7.57,-3.1 -12.3,-2.71z"/>
   <path class="fil0" d="M15.53 46.6c1.34,0 2.77,-0.08 4.05,-0.34 1.09,-0.22 1.95,-1.05 2.04,-2.26 0.1,-1.34 -0.77,-2.26 -1.74,-2.56 -1.31,-0.42 -5.9,1.25 -11.07,-1.29 -8.15,-3.99 -2.07,-10.24 6.97,-10.24 1.03,0 3.35,0.42 4.05,0.26 2.52,-0.6 2.55,-4.29 -0.06,-4.88 -4.7,-1.06 -10.95,0.09 -14.64,2.38 -0.73,0.45 -2.18,1.53 -2.68,2.16 -1.3,1.62 -2.45,3.27 -2.45,5.91 0,7.38 9.02,10.86 15.53,10.86z"/>
  </g>
 </g>
</svg>
