<?xml version="1.0" encoding="UTF-8"?>
<!DOCTYPE svg PUBLIC "-//W3C//DTD SVG 1.1//EN" "http://www.w3.org/Graphics/SVG/1.1/DTD/svg11.dtd">
<!-- Creator: CorelDRAW -->
<svg xmlns="http://www.w3.org/2000/svg" xml:space="preserve" width="256px" height="256px" version="1.1" style="shape-rendering:geometricPrecision; text-rendering:geometricPrecision; image-rendering:optimizeQuality; fill-rule:evenodd; clip-rule:evenodd"
viewBox="0 0 37.56 37.56"
 xmlns:xlink="http://www.w3.org/1999/xlink"
 xmlns:xodm="http://www.corel.com/coreldraw/odm/2003">
 <defs>
  <style type="text/css">
   <![CDATA[
    .fil0 {fill:#1A1A1A}
   ]]>
  </style>
 </defs>
 <g id="Layer_x0020_1">
  <metadata id="CorelCorpID_0Corel-Layer"/>
  <g id="_2036706844816">
   <path class="fil0" d="M0 3.6l0 8.76c0,2.64 1.43,3.59 4.03,3.59l7.94 0c2.71,0 4,-1.01 4,-3.74l0 -8.42c0,-2.91 -1.38,-3.79 -4.24,-3.79l-7.55 0c-2.68,0 -4.18,0.86 -4.18,3.6z"/>
   <path class="fil0" d="M21.6 3.6l0 8.76c0,2.64 1.43,3.59 4.03,3.59l7.94 0c2.75,0 3.99,-1.03 3.99,-3.79l0 -8.37c0,-2.87 -1.34,-3.79 -4.18,-3.79l-7.6 0c-2.68,0 -4.18,0.86 -4.18,3.6z"/>
   <path class="fil0" d="M0 25.63l0 7.94c0,2.75 1.28,3.99 4.03,3.99l7.89 0c2.94,0 4.05,-1.33 4.05,-4.23l0 -7.5c0,-3.06 -1.21,-4.23 -4.24,-4.23l-7.6 0c-2.83,0 -4.13,1.19 -4.13,4.03z"/>
   <path class="fil0" d="M21.6 25.63l0 7.94c0,2.76 1.28,3.99 4.03,3.99l7.89 0c2.98,0 4.04,-1.36 4.04,-4.28l0 -7.41c0,-3.03 -1.14,-4.27 -4.18,-4.27l-7.65 0c-2.83,0 -4.13,1.19 -4.13,4.03z"/>
  </g>
 </g>
</svg>
