<?xml version="1.0" encoding="UTF-8"?>
<!DOCTYPE svg PUBLIC "-//W3C//DTD SVG 1.1//EN" "http://www.w3.org/Graphics/SVG/1.1/DTD/svg11.dtd">
<!-- Creator: CorelDRAW -->
<svg xmlns="http://www.w3.org/2000/svg" xml:space="preserve" width="234px" height="258px" version="1.1" style="shape-rendering:geometricPrecision; text-rendering:geometricPrecision; image-rendering:optimizeQuality; fill-rule:evenodd; clip-rule:evenodd"
viewBox="0 0 55.02 60.61"
 xmlns:xlink="http://www.w3.org/1999/xlink"
 xmlns:xodm="http://www.corel.com/coreldraw/odm/2003">
 <defs>
  <style type="text/css">
   <![CDATA[
    .fil0 {fill:#1A1A1A}
   ]]>
  </style>
 </defs>
 <g id="Layer_x0020_1">
  <metadata id="CorelCorpID_0Corel-Layer"/>
  <path class="fil0" d="M18.79 55.95l17.48 0c1.14,0 2.31,-0.05 3.46,-0.16 1.03,-0.11 2.04,-0.26 2.98,-0.47 3.25,-0.75 5.16,-2.3 6.25,-4.52 1.1,-2.24 1.39,-5.19 1.39,-8.7l0 -17.84c0,-2.41 -0.18,-5.01 -0.91,-7.27 -0.72,-2.24 -1.98,-4.16 -4.13,-5.24 -0.58,-0.29 -1.44,-0.61 -2.34,-0.85 -0.72,-0.19 -1.47,-0.34 -2.1,-0.38 -0.03,0.11 -0.06,0.24 -0.1,0.4 -0.38,1.53 -1.23,4.94 -7.54,4.94l-11.72 0c-1.02,0 -1.94,-0.08 -2.79,-0.28 -0.85,-0.21 -1.61,-0.55 -2.3,-1.08 -0.59,-0.46 -1.04,-0.99 -1.38,-1.6 -0.34,-0.6 -0.57,-1.28 -0.74,-2.01l-0.12 -0.37c-4.09,0.44 -6.46,2.11 -7.81,4.56 -1.38,2.51 -1.71,5.85 -1.71,9.54l0 16.98c0,2.31 0.09,4.53 0.51,6.48 0.41,1.93 1.14,3.61 2.41,4.87 1.19,1.18 2.89,1.93 4.84,2.38 1.97,0.46 4.19,0.62 6.37,0.62zm-3.69 -15.85c0.22,-0.14 0.47,-0.25 0.74,-0.31 0.61,-0.14 5.96,-0.1 8.8,-0.08l1.53 0.01c0.33,0 0.61,-0.01 0.87,-0.02 1.49,-0.04 2.74,-0.08 3.5,1.11 0.16,0.25 0.27,0.51 0.32,0.77 0.11,0.5 0.04,0.99 -0.15,1.42 -0.2,0.42 -0.52,0.78 -0.9,1.02 -0.23,0.15 -0.47,0.25 -0.73,0.31 -0.58,0.13 -5.89,0.09 -8.76,0.07l-1.6 -0.01c-0.32,0 -0.59,0.01 -0.85,0.02 -1.47,0.04 -2.79,0.08 -3.52,-1.1 -0.15,-0.25 -0.25,-0.51 -0.31,-0.76 -0.12,-0.5 -0.06,-0.99 0.13,-1.42 0.2,-0.42 0.52,-0.78 0.93,-1.03zm-0.65 -10.62c0.3,-0.41 0.76,-0.74 1.37,-0.88 0.5,-0.12 4.05,-0.09 5.96,-0.07l1.02 0 1.62 -0.01c3.69,-0.02 11.69,-0.08 12.31,0.17 0.58,0.23 0.99,0.62 1.23,1.07 0.22,0.4 0.3,0.84 0.26,1.28 -0.03,0.43 -0.18,0.86 -0.45,1.22 -0.3,0.41 -0.75,0.74 -1.33,0.87 -0.48,0.11 -4.07,0.09 -6,0.07l-1.04 -0.01 -1.63 0.01c-3.7,0.03 -11.67,0.09 -12.31,-0.17 -0.56,-0.22 -0.96,-0.6 -1.2,-1.06 -0.2,-0.39 -0.29,-0.83 -0.26,-1.27 0.03,-0.43 0.18,-0.86 0.45,-1.22zm4.63 -24.21c-0.35,0.46 -0.43,1.26 -0.43,2.51 0,1.43 0.06,2.3 0.42,2.79 0.34,0.47 1,0.62 2.23,0.62l12.11 0c2.95,0 2.95,-0.8 2.95,-3.43l0 -0.19c0,-1.1 -0.08,-1.85 -0.41,-2.29 -0.33,-0.43 -0.95,-0.61 -2.04,-0.61l-12.75 0c-1.11,0 -1.74,0.16 -2.08,0.6zm-18.13 44.93c-0.68,-2.4 -0.95,-5.14 -0.95,-8.1l0 -17.91c0,-3.53 0.38,-6.91 1.55,-9.8 1.17,-2.91 3.13,-5.32 6.27,-6.86 1.99,-0.98 3.72,-1.26 5.95,-1.62l0.36 -0.06c0.28,-2 0.99,-3.45 2.18,-4.41 1.21,-0.98 2.91,-1.44 5.13,-1.44l12.09 0c1.45,0 2.82,0.2 3.98,0.71 1.17,0.53 2.12,1.38 2.69,2.7 0.09,0.2 0.16,0.39 0.23,0.58 0.07,0.19 0.14,0.39 0.2,0.61 0.05,0.18 0.08,0.37 0.11,0.56 0.04,0.23 0.08,0.46 0.14,0.64 0.22,0.05 0.85,0.17 1.51,0.29 0.75,0.13 1.53,0.27 1.8,0.34 4.33,1.14 7.04,3.45 8.67,6.61 1.62,3.14 2.16,7.11 2.16,11.58l0 16.91c0,2.55 -0.13,5.23 -0.71,7.75 -0.59,2.53 -1.63,4.9 -3.45,6.83 -1.48,1.56 -3.52,2.62 -5.74,3.31 -2.83,0.89 -5.95,1.19 -8.56,1.19l-18.13 0c-2.72,0 -5.64,-0.29 -8.29,-1.11 -2.2,-0.67 -4.21,-1.71 -5.79,-3.24 -1.64,-1.58 -2.73,-3.65 -3.4,-6.06z"/>
 </g>
</svg>
