<?xml version="1.0" encoding="UTF-8"?>
<!DOCTYPE svg PUBLIC "-//W3C//DTD SVG 1.1//EN" "http://www.w3.org/Graphics/SVG/1.1/DTD/svg11.dtd">
<!-- Creator: CorelDRAW -->
<svg xmlns="http://www.w3.org/2000/svg" xml:space="preserve" width="256px" height="256px" version="1.1" style="shape-rendering:geometricPrecision; text-rendering:geometricPrecision; image-rendering:optimizeQuality; fill-rule:evenodd; clip-rule:evenodd"
viewBox="0 0 230.63 230.63"
 xmlns:xlink="http://www.w3.org/1999/xlink"
 xmlns:xodm="http://www.corel.com/coreldraw/odm/2003">
 <defs>
  <style type="text/css">
   <![CDATA[
    .fil0 {fill:#1A1A1A}
   ]]>
  </style>
 </defs>
 <g id="Layer_x0020_1">
  <metadata id="CorelCorpID_0Corel-Layer"/>
  <path class="fil0" d="M0 110.12l0 10.63c0.58,1.38 0.78,7.74 1.06,9.92 0.4,3.03 0.92,6.04 1.55,8.98 4.48,20.89 16.74,43.97 32.29,58.29l5.53 5.06c36.3,31.21 89.75,36.89 132.29,12.37 12.37,-7.13 25.45,-18.12 34.01,-29.74 9.81,-13.32 16.5,-25.74 20.66,-43.09 8.64,-36.03 -0.45,-71.76 -21.96,-99.19l-4.88 -5.7c-1,-0.91 -1.71,-1.82 -2.63,-2.79 -3.65,-3.82 -9.65,-9.11 -14.03,-12.29 -15.63,-11.33 -33.04,-18.8 -52.8,-21.5 -2.17,-0.29 -8.23,-0.49 -9.63,-1.07l-12.35 0c-4.07,1.72 -27.76,-1.23 -60.8,21.5 -4.65,3.2 -7.35,5.74 -11.45,9.23 -0.69,0.59 -0.97,1.13 -1.67,1.76 -0.63,0.58 -1.03,0.96 -1.64,1.57 -17.16,17.14 -28.47,39.59 -32.18,63.79 -0.34,2.22 -0.96,11.27 -1.37,12.27zm147.99 -29.18c-15.24,2.87 -10.99,25.15 3.86,22.71 5.85,-0.96 10.79,-6.4 9.51,-13.52 -1.01,-5.6 -6.53,-10.48 -13.37,-9.19zm-69.14 0c-15.21,2.78 -11.09,25.17 3.85,22.71 5.75,-0.95 10.77,-6.37 9.5,-13.49 -1.01,-5.67 -6.45,-10.49 -13.35,-9.22zm2.23 55.64c-9.3,1.46 -13.79,12.4 -5.73,20.4 2.38,2.36 6.99,5.7 9.76,7.47 23.22,14.81 53.22,9.13 70.46,-7.84 5.8,-5.7 4.77,-13.37 -0.41,-17.68 -4.21,-3.5 -11.28,-3.34 -15.47,0.82l-2.27 2.16c-1.64,1.35 -3.16,2.48 -5.23,3.62 -12.51,6.92 -29.32,5.42 -39.28,-3.9 -2.58,-2.41 -5.87,-5.98 -11.83,-5.05zm28.83 -113.35c-18.74,1.21 -36.35,7.83 -50.35,18.63 -24.2,18.65 -38.22,47.45 -36.3,78.83 1.15,18.82 7.87,36.35 18.58,50.37 2.32,3.05 3.22,3.84 5.27,6.29 2.99,3.61 4.55,4.51 7.15,7.12 0.53,0.54 1.02,0.8 1.63,1.34 6.68,6.02 16.76,11.81 25.16,15.2 11.77,4.75 25.59,7.27 39.77,6.42 49.11,-2.96 89.62,-44.89 86.57,-97.65 -1.07,-18.57 -8.02,-36.45 -18.61,-50.27 -1.76,-2.3 -3.5,-4.28 -5.25,-6.32 -0.79,-0.93 -1.99,-1.98 -2.83,-2.82 -5.07,-5.06 -9.6,-8.99 -15.89,-12.91 -16.06,-10.02 -34.74,-15.53 -54.9,-14.23z"/>
 </g>
</svg>
