<?xml version="1.0" encoding="UTF-8"?>
<!DOCTYPE svg PUBLIC "-//W3C//DTD SVG 1.1//EN" "http://www.w3.org/Graphics/SVG/1.1/DTD/svg11.dtd">
<!-- Creator: CorelDRAW -->
<svg xmlns="http://www.w3.org/2000/svg" xml:space="preserve" width="199px" height="256px" version="1.1" style="shape-rendering:geometricPrecision; text-rendering:geometricPrecision; image-rendering:optimizeQuality; fill-rule:evenodd; clip-rule:evenodd"
viewBox="0 0 101.73 131.16"
 xmlns:xlink="http://www.w3.org/1999/xlink"
 xmlns:xodm="http://www.corel.com/coreldraw/odm/2003">
 <defs>
  <style type="text/css">
   <![CDATA[
    .fil0 {fill:#1A1A1A}
   ]]>
  </style>
 </defs>
 <g id="Layer_x0020_1">
  <metadata id="CorelCorpID_0Corel-Layer"/>
  <path class="fil0" d="M0 77.87l0 4.92c0.32,0.77 0.39,3.57 0.54,4.65 0.56,4.14 1.75,8.31 3.28,12.09 1.83,4.53 5.64,11 8.84,14.29l2.49 2.64c5.82,5.77 12.72,10.13 20.98,12.55 11.71,3.44 24.31,2.71 34.84,-1.93 3.87,-1.71 6.49,-3.28 9.77,-5.61l3.57 -2.81c0.26,-0.21 0.36,-0.37 0.63,-0.61 0.48,-0.45 0.91,-0.77 1.4,-1.23 2.37,-2.24 5.12,-5.75 6.98,-8.54 5.74,-8.6 9.25,-19.78 8.23,-32.64 -0.45,-5.69 -2.04,-11.71 -4.18,-16.33 -0.94,-2.05 -0.87,-6.66 -1.02,-9.16l-1.72 -29.24c-0.18,-3.18 -0.28,-6.53 -0.57,-9.69 -0.14,-1.52 -0.82,-2.76 -1.57,-3.55 -0.86,-0.89 -2,-1.28 -3.54,-1.72 -9.26,-2.6 -15.88,-4.25 -25.5,-5.28l-9.65 -0.67 -7.61 0c-0.76,0.31 -5.86,0.45 -7.22,0.58 -6.93,0.67 -13.03,1.89 -19.67,3.62 -2.08,0.54 -4.02,1.13 -6.07,1.68 -2.49,0.67 -3.69,1.22 -4.7,3.07 -1.1,2.04 -1.18,11.14 -1.36,14.18 -0.57,9.73 -1.14,19.46 -1.72,29.23 -0.17,2.98 0.04,4.63 -0.99,6.82 -0.81,1.71 -1.55,3.73 -2.13,5.63 -0.62,2.06 -1.13,4.09 -1.51,6.25 -0.2,1.13 -0.66,6.39 -0.82,6.81zm44.78 -49.99c-2.44,0 -7.79,-0.28 -9.88,0.09 -6.1,1.08 -6.15,9.78 -0.21,11.03 1.9,0.4 7.73,0.12 10.02,0.12 0.34,1.59 -0.19,8 0.15,9.94 1.09,6.1 9.8,6.17 11.04,0.2 0.56,-2.63 -0.18,-7.23 0.16,-10.11 2.87,-0.33 7.13,0.37 9.84,-0.13 5.99,-1.11 5.97,-9.87 0.03,-11.03 -2.74,-0.53 -7.22,0.32 -9.91,-0.17 0,-2.3 0.28,-7.98 -0.11,-9.9 -1.2,-5.88 -9.72,-6.07 -11.01,-0.03 -0.39,1.84 -0.12,7.71 -0.12,9.99zm-25.89 -11.9c-0.21,1.19 -1.57,26.06 -1.71,28.49 -0.11,1.86 -0.72,8.13 -0.49,9.49l68.56 0c0.2,-1.6 -2.18,-37.74 -2.26,-37.9 -0.6,-0.69 -12.68,-3.08 -14.48,-3.37 -11.83,-1.91 -23.37,-1.94 -35.2,-0.03 -5.2,0.84 -9.56,2.05 -14.42,3.32zm-7.62 63.68l0 0.97c0,21.3 17.89,39.33 39.16,39.33 9.93,0 18.64,-3.22 25.89,-9.29 12.1,-10.12 17.02,-26.73 12.5,-42.11 -0.32,-1.09 -0.89,-2.37 -1.12,-3.35l-73.29 -0.01c-0.45,0 -0.32,0.06 -0.52,0.51 -0.1,0.25 -0.19,0.58 -0.28,0.82l-1.47 5.19c-0.51,2.44 -0.87,5.33 -0.87,7.94z"/>
 </g>
</svg>
